<svg xmlns="http://www.w3.org/2000/svg" viewBox="0 0 512 512" width="512" height="512">
  <ellipse cx="181" cy="70" rx="16" ry="20" fill="#9B7653" stroke="#3D2B1F" stroke-width="3"/>
  <ellipse cx="181" cy="70" rx="9" ry="12" fill="#F0DCC0"/>
  <ellipse cx="331" cy="70" rx="16" ry="20" fill="#9B7653" stroke="#3D2B1F" stroke-width="3"/>
  <ellipse cx="331" cy="70" rx="9" ry="12" fill="#F0DCC0"/>
  <path d="M 201 70 Q 186 40 176 10" fill="none" stroke="#8B6B42" stroke-width="8" stroke-linecap="round"/>
  <path d="M 186 45 Q 166 35 161 20" fill="none" stroke="#8B6B42" stroke-width="6" stroke-linecap="round"/>
  <path d="M 179 20 Q 161 15 156 0" fill="none" stroke="#8B6B42" stroke-width="5" stroke-linecap="round"/>
  <circle cx="176" cy="10" r="4" fill="#8B6B42" stroke="#5C4033" stroke-width="2"/>
  <circle cx="161" cy="20" r="4" fill="#8B6B42" stroke="#5C4033" stroke-width="2"/>
  <circle cx="156" cy="0" r="4" fill="#8B6B42" stroke="#5C4033" stroke-width="2"/>
  <path d="M 311 70 Q 326 40 336 10" fill="none" stroke="#8B6B42" stroke-width="8" stroke-linecap="round"/>
  <path d="M 326 45 Q 346 35 351 20" fill="none" stroke="#8B6B42" stroke-width="6" stroke-linecap="round"/>
  <path d="M 333 20 Q 351 15 356 0" fill="none" stroke="#8B6B42" stroke-width="5" stroke-linecap="round"/>
  <circle cx="336" cy="10" r="4" fill="#8B6B42" stroke="#5C4033" stroke-width="2"/>
  <circle cx="351" cy="20" r="4" fill="#8B6B42" stroke="#5C4033" stroke-width="2"/>
  <circle cx="356" cy="0" r="4" fill="#8B6B42" stroke="#5C4033" stroke-width="2"/>
</svg>
