<svg xmlns="http://www.w3.org/2000/svg" viewBox="0 0 512 512" width="512" height="512">
  <!-- Background -->
  <rect width="512" height="512" fill="#E8F0F8" rx="20"/>
  <!-- tail_koala -->
  <g id="tail_koala">
    <ellipse cx="336" cy="365" rx="8" ry="6" fill="#8B7BB5" stroke="#3D3055" stroke-width="2"/>
  </g>
  <!-- body_koala -->
  <g id="body_koala">
    <ellipse cx="256" cy="345" rx="85" ry="95" fill="#8B7BB5" stroke="#3D3055" stroke-width="5"/>
  <ellipse cx="256" cy="350" rx="60" ry="75" fill="#D4C8E8"/>
  <rect x="236" y="275" width="40" height="30" fill="#8B7BB5"/>
  </g>
  <!-- legs_koala -->
  <g id="legs_koala">
    <ellipse cx="226" cy="435" rx="22" ry="32" fill="#8B7BB5" stroke="#3D3055" stroke-width="5"/>
  <ellipse cx="226" cy="480" rx="24" ry="12" fill="#6B5B95" stroke="#3D3055" stroke-width="3"/>
  <ellipse cx="286" cy="435" rx="22" ry="32" fill="#8B7BB5" stroke="#3D3055" stroke-width="5"/>
  <ellipse cx="286" cy="480" rx="24" ry="12" fill="#6B5B95" stroke="#3D3055" stroke-width="3"/>
  </g>
  <!-- arms_koala -->
  <g id="arms_koala">
    <ellipse cx="151" cy="330" rx="22" ry="35" fill="#8B7BB5" stroke="#3D3055" stroke-width="5" transform="rotate(-15, 151, 330)"/>
  <circle cx="141" cy="360" r="16" fill="#8B7BB5" stroke="#3D3055" stroke-width="3"/>
  <ellipse cx="361" cy="330" rx="22" ry="35" fill="#8B7BB5" stroke="#3D3055" stroke-width="5" transform="rotate(15, 361, 330)"/>
  <circle cx="371" cy="360" r="16" fill="#8B7BB5" stroke="#3D3055" stroke-width="3"/>
  </g>
  <!-- head_koala -->
  <g id="head_koala">
    <ellipse cx="256" cy="175" rx="115" ry="110" fill="#8B7BB5" stroke="#3D3055" stroke-width="5"/>
  <ellipse cx="256" cy="185" rx="85" ry="80" fill="#D4C8E8"/>
  </g>
  <!-- ears_koala -->
  <g id="ears_koala">
    <ellipse cx="161" cy="135" rx="42" ry="45" fill="#8B7BB5" stroke="#3D3055" stroke-width="5"/>
  <ellipse cx="161" cy="135" rx="26" ry="28" fill="#E0C8F0"/>
  <ellipse cx="351" cy="135" rx="42" ry="45" fill="#8B7BB5" stroke="#3D3055" stroke-width="5"/>
  <ellipse cx="351" cy="135" rx="26" ry="28" fill="#E0C8F0"/>
  </g>
  <!-- markings_koala -->
  <g id="markings_koala">
    <ellipse cx="211" cy="180" rx="20" ry="15" fill="#D4C8E8" opacity="0.4"/>
  <ellipse cx="301" cy="180" rx="20" ry="15" fill="#D4C8E8" opacity="0.4"/>
  </g>
  <!-- eyes_happy -->
  <g id="eyes_happy">
    <ellipse cx="208" cy="170" rx="22" ry="24" fill="#FFFFFF" stroke="#1A1A1A" stroke-width="4"/>
  <circle cx="205" cy="172" r="16" fill="#5C3A1A"/>
  <circle cx="205" cy="172" r="10" fill="#1A1A1A"/>
  <circle cx="202" cy="165" r="5" fill="#FFFFFF"/>
  <circle cx="207" cy="174" r="2.5" fill="#FFFFFF"/>
  <ellipse cx="304" cy="170" rx="22" ry="24" fill="#FFFFFF" stroke="#1A1A1A" stroke-width="4"/>
  <circle cx="307" cy="172" r="16" fill="#5C3A1A"/>
  <circle cx="307" cy="172" r="10" fill="#1A1A1A"/>
  <circle cx="310" cy="165" r="5" fill="#FFFFFF"/>
  <circle cx="305" cy="174" r="2.5" fill="#FFFFFF"/>
  </g>
  <!-- nose_round -->
  <g id="nose_round">
    <ellipse cx="256" cy="200" rx="10" ry="8" fill="#2D2D2D" stroke="#1A1A1A" stroke-width="2"/>
  <circle cx="253" cy="198" r="2.5" fill="#555555"/>
  </g>
  <!-- mouth_smile -->
  <g id="mouth_smile">
    <path d="M 234 220 Q 256 238 278 220" fill="none" stroke="#1A1A1A" stroke-width="4" stroke-linecap="round"/>
  </g>
</svg>
